PathFileType  4	(X/Y/Z) C:\Users\antoi\Documents\MyRepositories\mobilecap\ResultsAnalysis
DataRate	CameraRate	NumFrames	NumMarkers	Units	OrigDataRate	OrigDataStartFrame	OrigNumFrames
100.0	100.0	4	51	mm	100.0	481	1281
Frame#	Time	r_knee			r_shank_antsup			r_ankle			r_calc			r_5meta			r_toe			L_knee			L_shank_antsup			L_ankle			L_calc			L_5meta			L_toe			r_sh2			r_sh3			r_sh4			L_sh2			L_sh3			r_thigh1			r_thigh2			r_thigh3			r_thigh4			r_thigh5			L_thigh1			L_thigh2			L_thigh3			L_thigh4			r.ASIS			r.PSIS			L.ASIS			L.PSIS			C7			R_Shoulder			L_Shoulder			R_Sternum			L_Sternum			R_humerus			R_elbow_med			R_elbow_lat			R_forearm			R_wrist_radius			R_wrist_ulna			L_humerus			L_elbow_med			L_elbow_lat			L_forearm			L_wrist_radius			L_wrist_ulna			R_HJC			L_HJC			R_HJC_reg			L_HJC_reg			
		X1	Y1	Z1	X2	Y2	Z2	X3	Y3	Z3	X4	Y4	Z4	X5	Y5	Z5	X6	Y6	Z6	X7	Y7	Z7	X8	Y8	Z8	X9	Y9	Z9	X10	Y10	Z10	X11	Y11	Z11	X12	Y12	Z12	X13	Y13	Z13	X14	Y14	Z14	X15	Y15	Z15	X16	Y16	Z16	X17	Y17	Z17	X18	Y18	Z18	X19	Y19	Z19	X20	Y20	Z20	X21	Y21	Z21	X22	Y22	Z22	X23	Y23	Z23	X24	Y24	Z24	X25	Y25	Z25	X26	Y26	Z26	X27	Y27	Z27	X28	Y28	Z28	X29	Y29	Z29	X30	Y30	Z30	X31	Y31	Z31	X32	Y32	Z32	X33	Y33	Z33	X34	Y34	Z34	X35	Y35	Z35	X36	Y36	Z36	X37	Y37	Z37	X38	Y38	Z38	X39	Y39	Z39	X40	Y40	Z40	X41	Y41	Z41	X42	Y42	Z42	X43	Y43	Z43	X44	Y44	Z44	X45	Y45	Z45	X46	Y46	Z46	X47	Y47	Z47	X48	Y48	Z48	X49	Y49	Z49	X50	Y50	Z50	X51	Y51	Z51	

481	4.80000000	-217.33397	504.81960	-369.61566	-179.89919	458.70197	-364.58237	-256.93592	98.59880	-359.21193	-308.35785	57.93528	-412.45174	-139.78813	39.00149	-303.99403	-93.04721	62.96268	-351.83097	-215.96249	503.85144	-785.72215	-192.80768	422.88293	-810.91049	-241.47243	98.99765	-800.54163	-296.12596	56.16751	-748.99441	-123.74632	41.21638	-839.87995	-77.86326	60.01672	-787.74869	-185.54588	344.68414	-363.52142	-254.39832	461.32435	-342.85581	-260.85699	346.49272	-328.62997	-280.51345	435.02249	-807.50801	-284.36334	313.13972	-817.55916	-117.94079	792.22765	-444.82273	-113.28230	683.96689	-420.89085	-146.01422	671.23984	-362.37378	-197.59698	805.45859	-366.49811	-196.92696	690.72588	-350.45207	-168.61666	824.04414	-767.31625	-175.43193	685.84947	-798.62464	-280.00176	824.20292	-751.54607	-278.47926	685.08823	-750.65226	-132.30912	964.14270	-443.02541	-314.85763	1002.42654	-530.55044	-121.12467	954.21139	-684.63961	-312.08526	1002.62647	-628.98775	-250.02693	1460.33507	-582.34203	-178.08102	1431.78775	-411.09109	-174.49175	1419.93249	-742.76772	-128.03497	1379.75660	-557.17760	-124.63768	1376.46523	-595.24332	-236.82566	1215.71011	-303.95133	-314.41890	1124.52027	-330.24781	-272.07192	1134.52098	-272.60975	-140.04239	1111.23625	-322.86765	-57.84580	1123.79416	-376.60092	-59.50244	1078.96555	-369.10557	-227.05981	1202.83391	-840.54177	-282.38926	1091.12238	-799.42593	-256.64459	1101.75779	-864.70016	-118.50989	1069.63833	-817.07036	-28.99494	1074.13898	-761.97582	-36.10032	1029.13795	-765.20406	-206.51597	884.13158	-483.28316	-208.79614	887.92448	-673.90294	-200.91532	888.51483	-478.84596	-196.41721	888.83953	-638.55286	
482	4.81000000	-218.33521	504.90738	-369.79549	-180.92053	458.85078	-365.03021	-257.11886	98.47673	-359.27168	-308.36803	57.92595	-412.44723	-139.80161	38.99518	-303.98800	-92.96334	62.85175	-351.95270	-216.56850	503.81593	-785.57922	-193.40788	422.94350	-810.71634	-241.49525	98.99105	-800.52430	-296.17916	56.11574	-748.97844	-123.74424	41.21887	-839.87572	-77.86257	60.00089	-787.73298	-186.29383	344.66177	-363.54290	-255.29447	461.42147	-342.86828	-261.27948	346.86813	-328.12132	-281.04899	435.06097	-807.70328	-284.72480	313.20025	-817.79051	-116.99276	791.83180	-445.07941	-113.10700	683.51908	-421.15756	-145.81045	671.06095	-362.66180	-196.48272	805.35373	-367.04500	-196.47938	690.74272	-350.72109	-167.17292	824.01731	-767.29444	-174.62381	685.69164	-798.19712	-278.38036	824.97362	-751.81849	-277.88359	685.26639	-750.73684	-131.10729	964.55793	-442.59248	-313.61178	1001.98751	-530.93252	-119.62621	954.32121	-684.63499	-310.66358	1002.17811	-629.13704	-251.10388	1460.00973	-582.66606	-179.07235	1431.73343	-411.01764	-175.52074	1419.96825	-743.26474	-128.79202	1379.83942	-557.38927	-125.43638	1376.57560	-595.57595	-237.75845	1215.41416	-304.29650	-315.07000	1123.90466	-330.60273	-272.84989	1134.21127	-272.74066	-140.62062	1110.82938	-322.63633	-58.21421	1123.41594	-375.84841	-60.05027	1078.46615	-368.57896	-229.06134	1202.75259	-840.63559	-284.33997	1091.14819	-799.26931	-258.83566	1101.56298	-864.50242	-120.44161	1069.94930	-817.59250	-31.00319	1074.44964	-762.25883	-38.11127	1029.25446	-764.53466	-204.98825	884.20671	-483.15450	-206.95029	887.73920	-673.78300	-199.40954	888.32140	-478.60031	-194.60648	888.63261	-638.59811	
483	4.82000000	-219.14297	504.96846	-369.94420	-181.82947	459.06160	-365.16902	-257.28474	98.30392	-359.31038	-308.37063	57.92529	-412.44253	-139.81009	38.98724	-303.98031	-92.82570	62.68266	-352.15263	-217.06615	503.79290	-785.48719	-193.81030	423.04258	-810.55135	-241.51274	98.98989	-800.50081	-296.26152	56.06004	-748.98330	-123.73032	41.22087	-839.86175	-77.85265	59.99616	-787.72605	-186.95118	344.55292	-363.61746	-256.28682	461.68003	-342.73877	-261.69742	346.93349	-327.95174	-281.42346	435.05756	-807.80029	-284.93684	313.26648	-818.11155	-116.11667	791.49564	-445.13315	-112.91498	683.11972	-421.35841	-145.58271	670.88150	-362.87790	-195.60131	804.87399	-367.99222	-195.99067	690.97835	-350.52347	-165.71880	823.99524	-767.12557	-173.65627	685.59607	-797.85047	-276.84793	825.60366	-752.12564	-277.25084	685.54641	-750.98408	-130.01586	964.97100	-442.32590	-312.48250	1001.62366	-531.09110	-118.22726	954.57380	-684.70992	-309.40938	1001.83010	-629.28220	-252.07404	1459.69058	-582.86466	-179.94964	1431.81523	-411.00255	-176.57008	1419.98098	-743.63321	-129.48232	1379.93140	-557.60846	-126.11994	1376.78964	-595.79204	-238.48129	1215.15298	-304.63848	-315.41586	1123.33187	-330.97870	-273.46101	1133.88331	-273.01961	-140.98963	1110.50037	-322.30912	-58.39921	1123.00589	-375.19394	-60.42576	1077.97354	-368.18494	-230.89025	1202.77585	-840.67665	-286.19404	1091.21906	-799.01196	-260.91701	1101.57422	-864.21239	-122.39504	1070.31598	-817.66294	-32.83098	1074.88681	-762.71102	-39.69123	1028.99849	-762.68003	-203.53043	884.30330	-483.10223	-205.28702	887.70172	-673.73537	-197.98157	888.23073	-478.48217	-192.96740	888.56766	-638.71284	
484	4.83000000	-219.88404	505.05701	-370.04714	-182.69528	459.31304	-365.11655	-257.36304	98.21065	-359.32026	-308.36563	57.93789	-412.44191	-139.80818	38.98464	-303.97711	-92.77635	62.60248	-352.23702	-217.30860	503.83636	-785.47838	-194.09558	423.18205	-810.40256	-241.53027	98.99617	-800.48299	-296.30506	56.04773	-748.99745	-123.71509	41.22299	-839.84868	-77.83609	60.00238	-787.71675	-187.53068	344.58101	-363.80407	-257.19923	461.86211	-342.59110	-262.40386	346.68996	-328.18103	-281.74276	435.11207	-808.00748	-285.08858	313.29444	-818.31996	-115.26113	791.18044	-445.10893	-112.67203	682.82379	-421.37540	-145.34726	670.72888	-362.97611	-194.73971	804.60692	-368.53032	-195.50745	691.37777	-350.02736	-164.28650	823.87215	-766.78084	-172.61908	685.69921	-797.84423	-275.44515	826.04765	-752.39200	-276.41486	686.05842	-751.35194	-128.97080	965.23251	-442.19617	-311.42336	1001.33655	-531.04127	-116.87642	954.79043	-684.76683	-308.29271	1001.47146	-629.42430	-252.99552	1459.46399	-582.95548	-180.79946	1431.86270	-411.14290	-178.33588	1419.51340	-743.61685	-130.09317	1380.08733	-557.84389	-126.75106	1376.98847	-595.99175	-238.97861	1214.93830	-304.98792	-315.53662	1122.94648	-331.29275	-273.88427	1133.63335	-273.30999	-141.20409	1110.23923	-321.95675	-58.43939	1122.59711	-374.73015	-60.52907	1077.62370	-367.63362	-232.53172	1202.86216	-840.70609	-287.86658	1091.30100	-798.64488	-262.86818	1101.83285	-864.00195	-124.25420	1070.66685	-817.56898	-34.43915	1075.46435	-763.20362	-41.04321	1029.49053	-762.74326	-202.16028	884.32996	-483.06883	-203.79628	887.66662	-673.70398	-196.65842	888.29081	-478.36001	-191.55561	888.51067	-638.72226	
